<svg width="16" height="17" viewBox="0 0 16 17" fill="none" xmlns="http://www.w3.org/2000/svg">
<g id="GithubLogo">
<path id="Vector" d="M13.0194 5.23001C13.1722 4.73701 13.2212 4.21768 13.1634 3.70479C13.1055 3.1919 12.942 2.69656 12.6831 2.25001C12.6392 2.17398 12.5761 2.11085 12.5001 2.06697C12.424 2.02308 12.3378 1.99999 12.25 2.00001C11.6676 1.99879 11.093 2.1338 10.5721 2.39425C10.0512 2.6547 9.59845 3.03337 9.25 3.50001H7.75C7.40155 3.03337 6.94878 2.6547 6.42788 2.39425C5.90698 2.1338 5.33238 1.99879 4.75 2.00001C4.66221 1.99999 4.57597 2.02308 4.49994 2.06697C4.4239 2.11085 4.36077 2.17398 4.31687 2.25001C4.05803 2.69656 3.89452 3.1919 3.83664 3.70479C3.77877 4.21768 3.8278 4.73701 3.98062 5.23001C3.6717 5.76921 3.50623 6.37862 3.5 7.00001V7.50001C3.50105 8.34601 3.80817 9.16306 4.36464 9.80029C4.92111 10.4375 5.68935 10.8519 6.5275 10.9669C6.18538 11.4047 5.99968 11.9444 6 12.5V13H4.5C4.10218 13 3.72064 12.842 3.43934 12.5607C3.15804 12.2794 3 11.8978 3 11.5C3 11.1717 2.93534 10.8466 2.8097 10.5433C2.68406 10.24 2.49991 9.96439 2.26777 9.73224C2.03562 9.50009 1.76002 9.31595 1.45671 9.19031C1.15339 9.06467 0.828305 9.00001 0.5 9.00001C0.367392 9.00001 0.240215 9.05269 0.146447 9.14645C0.0526784 9.24022 0 9.3674 0 9.50001C0 9.63262 0.0526784 9.75979 0.146447 9.85356C0.240215 9.94733 0.367392 10 0.5 10C0.897825 10 1.27936 10.158 1.56066 10.4393C1.84196 10.7207 2 11.1022 2 11.5C2 12.163 2.26339 12.7989 2.73223 13.2678C3.20107 13.7366 3.83696 14 4.5 14H6V15C6 15.1326 6.05268 15.2598 6.14645 15.3536C6.24021 15.4473 6.36739 15.5 6.5 15.5C6.63261 15.5 6.75979 15.4473 6.85355 15.3536C6.94732 15.2598 7 15.1326 7 15V12.5C7 12.1022 7.15804 11.7207 7.43934 11.4393C7.72064 11.158 8.10218 11 8.5 11C8.89782 11 9.27936 11.158 9.56066 11.4393C9.84196 11.7207 10 12.1022 10 12.5V15C10 15.1326 10.0527 15.2598 10.1464 15.3536C10.2402 15.4473 10.3674 15.5 10.5 15.5C10.6326 15.5 10.7598 15.4473 10.8536 15.3536C10.9473 15.2598 11 15.1326 11 15V12.5C11.0003 11.9444 10.8146 11.4047 10.4725 10.9669C11.3107 10.8519 12.0789 10.4375 12.6354 9.80029C13.1918 9.16306 13.4989 8.34601 13.5 7.50001V7.00001C13.4938 6.37862 13.3283 5.76921 13.0194 5.23001ZM12.5 7.50001C12.5 8.16305 12.2366 8.79893 11.7678 9.26778C11.2989 9.73662 10.663 10 10 10H7C6.33696 10 5.70107 9.73662 5.23223 9.26778C4.76339 8.79893 4.5 8.16305 4.5 7.50001V7.00001C4.50613 6.50002 4.65582 6.01233 4.93125 5.59501C4.98259 5.52733 5.01585 5.44769 5.02788 5.3636C5.03991 5.27951 5.03031 5.19374 5 5.11438C4.86976 4.77851 4.80709 4.42023 4.81556 4.06009C4.82403 3.69995 4.90349 3.34501 5.04938 3.01563C5.45857 3.05965 5.85262 3.1952 6.2023 3.41224C6.55198 3.62928 6.84832 3.92223 7.06938 4.26938C7.11442 4.33982 7.17641 4.39784 7.24968 4.43813C7.32294 4.47842 7.40514 4.4997 7.48875 4.50001H9.51062C9.59455 4.50001 9.67713 4.47889 9.75075 4.43858C9.82437 4.39828 9.88666 4.34009 9.93188 4.26938C10.1529 3.9222 10.4492 3.62922 10.7989 3.41218C11.1486 3.19514 11.5427 3.05961 11.9519 3.01563C12.0976 3.3451 12.1768 3.70007 12.1851 4.06021C12.1933 4.42036 12.1304 4.77859 12 5.11438C11.9698 5.19298 11.9597 5.27788 11.9706 5.36138C11.9815 5.44487 12.0131 5.52432 12.0625 5.59251C12.3407 6.00984 12.4926 6.49853 12.5 7.00001V7.50001Z" fill="#71717A"/>
</g>
</svg>
