<svg width="18" height="21" viewBox="0 0 18 21" fill="none" xmlns="http://www.w3.org/2000/svg">
<g id="Group">
<path id="Vector" d="M15.8914 0.5H2.10857C0.946286 0.5 0 1.42 0 2.56V16.08C0 17.22 0.946286 18.14 2.10857 18.14H13.7726L13.2274 16.29L14.544 17.48L15.7886 18.6L18 20.5V2.56C18 1.42 17.0537 0.5 15.8914 0.5ZM11.9211 13.56C11.9211 13.56 11.5509 13.13 11.2423 12.75C12.5897 12.38 13.104 11.56 13.104 11.56C12.6823 11.83 12.2811 12.02 11.9211 12.15C11.4069 12.36 10.9131 12.5 10.4297 12.58C9.44229 12.76 8.53714 12.71 7.76571 12.57C7.17943 12.46 6.67543 12.3 6.25371 12.14C6.01714 12.05 5.76 11.94 5.50286 11.8C5.472 11.78 5.44114 11.77 5.41029 11.75C5.38971 11.74 5.37943 11.73 5.36914 11.72C5.184 11.62 5.08114 11.55 5.08114 11.55C5.08114 11.55 5.57486 12.35 6.88114 12.73C6.57257 13.11 6.192 13.56 6.192 13.56C3.91886 13.49 3.05486 12.04 3.05486 12.04C3.05486 8.82 4.536 6.21 4.536 6.21C6.01714 5.13 7.42629 5.16 7.42629 5.16L7.52914 5.28C5.67771 5.8 4.824 6.59 4.824 6.59C4.824 6.59 5.05029 6.47 5.43086 6.3C6.53143 5.83 7.40571 5.7 7.76571 5.67C7.82743 5.66 7.87886 5.65 7.94057 5.65C8.568 5.57 9.27771 5.55 10.0183 5.63C10.9954 5.74 12.0446 6.02 13.1143 6.59C13.1143 6.59 12.3017 5.84 10.5531 5.32L10.6971 5.16C10.6971 5.16 12.1063 5.13 13.5874 6.21C13.5874 6.21 15.0686 8.82 15.0686 12.04C15.0686 12.04 14.1943 13.49 11.9211 13.56ZM7.13829 8.89C6.552 8.89 6.08914 9.39 6.08914 10C6.08914 10.61 6.56229 11.11 7.13829 11.11C7.72457 11.11 8.18743 10.61 8.18743 10C8.19771 9.39 7.72457 8.89 7.13829 8.89ZM10.8926 8.89C10.3063 8.89 9.84343 9.39 9.84343 10C9.84343 10.61 10.3166 11.11 10.8926 11.11C11.4789 11.11 11.9417 10.61 11.9417 10C11.9417 9.39 11.4789 8.89 10.8926 8.89Z" fill="white"/>
</g>
</svg>
